<svg width="512" height="512" viewBox="0 0 512 512" fill="none" xmlns="http://www.w3.org/2000/svg">
<path d="M482 306C498.542 306 512 292.542 512 276C512 259.458 498.542 246 482 246H397.116C356.513 237.263 326 198.749 326 156V70C326 31.402 294.598 0 256 0C217.402 0 186 31.402 186 70V156C186 198.749 155.487 237.263 114.884 246H30C13.458 246 0 259.458 0 276C0 292.542 13.458 306 30 306C35.514 306 40 310.486 40 316C40 321.514 35.514 326 30 326H10C4.477 326 0 330.477 0 336C0 341.523 4.477 346 10 346H30C46.542 346 60 332.542 60 316C60 299.458 46.542 286 30 286C24.486 286 20 281.514 20 276C20 270.486 24.486 266 30 266H106V356.52C106 397.469 121.254 436.184 148.951 465.531C177.232 495.497 215.246 512 256 512C283.712 512 310.775 504.401 334.262 490.026C338.973 487.143 340.454 480.987 337.571 476.277C334.687 471.566 328.531 470.085 323.821 472.968C303.478 485.418 280.026 492 255.99 492C184.313 492 126 431.224 126 356.52V263.831C169.038 251.41 201.344 212.166 205.537 166H306.463C310.663 212.239 343.028 251.429 386 263.831V362C386 378.518 382.955 394.603 376.948 409.81C374.919 414.947 377.438 420.756 382.575 422.785C387.714 424.813 393.52 422.294 395.55 417.158C402.484 399.602 406 381.044 406 362V266H482C487.514 266 492 270.486 492 276C492 281.514 487.514 286 482 286C465.458 286 452 299.458 452 316C452 332.542 465.458 346 482 346H502C507.523 346 512 341.523 512 336C512 330.477 507.523 326 502 326H482C476.486 326 472 321.514 472 316C472 310.486 476.486 306 482 306V306ZM256 20C283.57 20 306 42.43 306 70V146H206V70C206 42.43 228.43 20 256 20Z" fill="#FFFAFA"/>
<path d="M256 246C231.339 246 210.791 263.948 206.728 287.466C194.709 291.38 186 302.692 186 316C186 330.091 195.768 341.937 208.886 345.141L246.715 439.714C248.234 443.511 251.911 446 256 446C260.089 446 263.766 443.511 265.285 439.714L303.114 345.141C316.232 341.937 326 330.091 326 316C326 302.692 317.29 291.38 305.271 287.466C301.209 263.948 280.661 246 256 246V246ZM256 409.074L229.431 342.651C230.71 341.975 231.949 341.208 233.131 340.341C240.216 344.063 247.988 346 256 346C264.012 346 271.784 344.063 278.87 340.342C280.052 341.209 281.291 341.975 282.57 342.652L256 409.074ZM296 326C291.992 326 289.411 323.32 288.229 321.722C284.913 317.241 278.56 316.33 274.119 319.724C268.745 323.83 262.48 326 256 326C249.52 326 243.255 323.83 237.881 319.724C233.463 316.346 227.102 317.22 223.771 321.722C222.589 323.32 220.008 326 216 326C210.486 326 206 321.514 206 316C206 310.486 210.486 306 216 306C221.523 306 226 301.523 226 296C226 279.458 239.458 266 256 266C272.542 266 286 279.458 286 296C286 301.523 290.477 306 296 306C301.514 306 306 310.486 306 316C306 321.514 301.514 326 296 326Z" fill="#FFFAFA"/>
<path d="M363.001 462C368.524 462 373.001 457.523 373.001 452C373.001 446.477 368.524 442 363.001 442C357.478 442 353.001 446.477 353.001 452C353.001 457.523 357.478 462 363.001 462Z" fill="#FFFAFA"/>
</svg>
