<svg width="512" height="512" viewBox="0 0 512 512" fill="none" xmlns="http://www.w3.org/2000/svg">
<path d="M256 436C261.523 436 266 431.523 266 426C266 420.477 261.523 416 256 416C250.477 416 246 420.477 246 426C246 431.523 250.477 436 256 436Z" fill="#FFFAFA"/>
<path d="M416 196H276C270.477 196 266 200.477 266 206V266C266 271.523 270.477 276 276 276H416C421.522 276 426 271.523 426 266V206C426 200.477 421.522 196 416 196ZM406 256H286V216H406V256Z" fill="#FFFAFA"/>
<path d="M116 336H96C90.477 336 86 340.477 86 346C86 351.523 90.477 356 96 356H116C121.523 356 126 351.523 126 346C126 340.477 121.523 336 116 336Z" fill="#FFFAFA"/>
<path d="M176 336H156C150.477 336 146 340.477 146 346C146 351.523 150.477 356 156 356H176C181.523 356 186 351.523 186 346C186 340.477 181.523 336 176 336Z" fill="#FFFAFA"/>
<path d="M236 336H216C210.477 336 206 340.477 206 346C206 351.523 210.477 356 216 356H236C241.522 356 246 351.523 246 346C246 340.477 241.522 336 236 336Z" fill="#FFFAFA"/>
<path d="M296 296H276C270.477 296 266 300.477 266 306C266 311.523 270.477 316 276 316H296C301.522 316 306 311.523 306 306C306 300.477 301.522 296 296 296Z" fill="#FFFAFA"/>
<path d="M356 296H336C330.478 296 326 300.477 326 306C326 311.523 330.478 316 336 316H356C361.522 316 366 311.523 366 306C366 300.477 361.522 296 356 296Z" fill="#FFFAFA"/>
<path d="M416 296H396C390.478 296 386 300.477 386 306C386 311.523 390.478 316 396 316H416C421.522 316 426 311.523 426 306C426 300.477 421.522 296 416 296Z" fill="#FFFAFA"/>
<path d="M116 296H96C90.477 296 86 300.477 86 306C86 311.523 90.477 316 96 316H116C121.523 316 126 311.523 126 306C126 300.477 121.523 296 116 296Z" fill="#FFFAFA"/>
<path d="M176 296H156C150.477 296 146 300.477 146 306C146 311.523 150.477 316 156 316H176C181.523 316 186 311.523 186 306C186 300.477 181.523 296 176 296Z" fill="#FFFAFA"/>
<path d="M236 296H216C210.477 296 206 300.477 206 306C206 311.523 210.477 316 216 316H236C241.522 316 246 311.523 246 306C246 300.477 241.522 296 236 296Z" fill="#FFFAFA"/>
<path d="M296 336H276C270.477 336 266 340.477 266 346C266 351.523 270.477 356 276 356H296C301.522 356 306 351.523 306 346C306 340.477 301.522 336 296 336Z" fill="#FFFAFA"/>
<path d="M356 336H336C330.478 336 326 340.477 326 346C326 351.523 330.478 356 336 356H356C361.522 356 366 351.523 366 346C366 340.477 361.522 336 356 336Z" fill="#FFFAFA"/>
<path d="M416 336H396C390.478 336 386 340.477 386 346C386 351.523 390.478 356 396 356H416C421.522 356 426 351.523 426 346C426 340.477 421.522 336 416 336Z" fill="#FFFAFA"/>
<path d="M256.001 476C261.524 476 266.001 471.523 266.001 466C266.001 460.477 261.524 456 256.001 456C250.478 456 246.001 460.477 246.001 466C246.001 471.523 250.478 476 256.001 476Z" fill="#FFFAFA"/>
<path d="M502 376H485.132L465.959 165.095C465.49 159.943 461.172 156 456 156H386V136H416C421.522 136 426 131.523 426 126V46C426 40.477 421.522 36 416 36H296C290.478 36 286 40.477 286 46V126C286 131.523 290.478 136 296 136H326V156H226V106C226 102.682 224.354 99.58 221.606 97.719C218.859 95.859 215.367 95.482 212.286 96.715L191 105.229L169.714 96.715C167.33 95.761 164.67 95.761 162.286 96.715L141 105.229L119.714 96.715C116.632 95.482 113.142 95.859 110.394 97.719C107.646 99.579 106 102.681 106 106V156H56C50.828 156 46.509 159.944 46.041 165.095L26.868 376H10C4.477 376 0 380.477 0 386V466C0 471.523 4.477 476 10 476H211.001C216.524 476 221.001 471.523 221.001 466C221.001 460.477 216.524 456 211.001 456H20V396H492V456H301.001C295.478 456 291.001 460.477 291.001 466C291.001 471.523 295.478 476 301.001 476H502C507.522 476 512 471.523 512 466V386C512 380.477 507.522 376 502 376ZM306 56H406V116H306V56ZM346 136H366V156H346V136ZM126 120.77L137.286 125.284C139.67 126.238 142.33 126.238 144.714 125.284L166 116.77L187.286 125.284C189.67 126.238 192.33 126.238 194.714 125.284L206 120.77V256H126V120.77ZM46.95 376L65.132 176H106V256H96C90.477 256 86 260.477 86 266C86 271.523 90.477 276 96 276H236C241.522 276 246 271.523 246 266C246 260.477 241.522 256 236 256H226V176H446.868L465.05 376H46.95Z" fill="#FFFAFA"/>
</svg>
