<svg width="512" height="512" viewBox="0 0 512 512" fill="none" xmlns="http://www.w3.org/2000/svg">
<g clip-path="url(#clip0_72_539)">
<path d="M511.999 299.631C511.999 272.374 493.244 248.194 468.606 240.683C473.461 228.767 475.999 215.962 475.999 203.001C475.999 158.753 447.107 121.13 407.2 107.992C412.699 101.14 416 92.4511 416 83.0021C416 64.5012 403.372 48.8993 386.284 44.3493C388.23 25.1225 399.774 19.2865 400.309 19.0265C405.291 16.6475 407.403 10.6805 405.026 5.69757C402.648 0.712602 396.68 -1.40139 391.695 0.9766C389.213 2.16059 368.535 12.9585 366.22 44.2163C348.877 48.5913 336 64.3192 336 83.0021C336 92.4541 339.303 101.145 344.805 107.999C334.494 111.39 324.76 116.465 315.99 123.063C307.225 116.467 297.498 111.393 287.192 108.001C292.696 101.148 295.999 92.4561 295.999 83.0021C295.999 64.5012 283.371 48.8993 266.283 44.3493C268.229 25.1225 279.773 19.2865 280.308 19.0265C285.29 16.6475 287.402 10.6805 285.025 5.69757C282.647 0.712602 276.678 -1.40139 271.694 0.9766C269.212 2.16059 248.534 12.9585 246.22 44.2163C228.877 48.5913 216 64.3192 216 83.0021C216 92.4551 219.303 101.147 224.807 108.001C214.5 111.392 204.772 116.467 196.009 123.063C187.239 116.465 177.506 111.39 167.195 108C172.697 101.147 176 92.4561 176 83.0031C176 64.5022 163.372 48.9003 146.284 44.3503C148.23 25.1235 159.774 19.2875 160.309 19.0275C165.291 16.6485 167.403 10.6815 165.026 5.69857C162.648 0.713602 156.678 -1.40039 151.695 0.9776C149.213 2.16159 128.535 12.9595 126.221 44.2173C108.878 48.5923 96.0014 64.3202 96.0014 83.0031C96.0014 92.4521 99.3024 101.141 104.801 107.993C64.8936 121.131 36.0017 158.754 36.0017 203.002C36.0017 215.964 38.5397 228.769 43.3947 240.685C18.7548 248.197 0.00195312 272.376 0.00195312 299.632C0.00195312 321.001 11.5909 340.249 29.4468 350.441C12.1039 358.297 0.00195312 375.756 0.00195312 396.001C0.00195312 401.524 4.47893 406.001 10.0019 406.001C27.7888 406.001 46.9117 414.469 62.4656 429.232C88.8574 454.292 121.786 469.498 153.961 471.718L141.056 497.529C139.506 500.629 139.672 504.31 141.494 507.257C143.316 510.205 146.534 512 150 512H211.001C216.524 512 221.001 507.522 221.001 502C221.001 496.478 216.524 492 211.001 492H166.18L176.18 472H335.818L345.818 492H300.999C295.476 492 290.999 496.478 290.999 502C290.999 507.523 295.476 512 300.999 512H361.998C365.464 512 368.683 510.205 370.504 507.257C372.326 504.31 372.492 500.628 370.942 497.529L358.037 471.718C390.212 469.498 423.141 454.292 449.531 429.234C465.087 414.469 484.21 406.001 501.997 406.001C507.52 406.001 511.997 401.524 511.997 396.001C511.997 375.595 499.834 358.231 482.58 350.425C500.421 340.227 511.999 320.988 511.999 299.631V299.631ZM439.805 239.784C408.763 247.201 373.447 253.43 339.829 257.506C344.935 249.685 348.922 241.185 351.661 232.179C358.657 230.11 363.448 224.506 367.14 220.174C370.944 215.711 373.439 213.001 376 213.001C378.561 213.001 381.056 215.711 384.86 220.174C389.473 225.587 395.792 233.001 406 233.001C418.2 233.001 423.551 220.441 428.727 208.295C430.701 203.662 434.281 195.262 436.699 193.068C439.026 193.51 441.402 196.118 444.859 200.174C447.665 203.467 451.109 207.491 455.669 210.146C454.782 220.012 452.075 229.64 447.674 238.503C445.021 238.74 442.389 239.163 439.805 239.784V239.784ZM64.3246 238.5C59.9236 229.638 57.2176 220.012 56.3306 210.146C60.8906 207.492 64.3346 203.467 67.1406 200.174C70.5985 196.118 72.9735 193.509 75.3005 193.068C77.7185 195.263 81.2985 203.662 83.2725 208.295C88.4484 220.441 93.8004 233.001 106.001 233.001C116.209 233.001 122.527 225.587 127.141 220.174C130.945 215.711 133.44 213.001 136.001 213.001C138.562 213.001 141.057 215.711 144.861 220.174C148.553 224.506 153.344 230.11 160.34 232.179C163.08 241.187 167.067 249.686 172.172 257.506C138.554 253.43 103.241 247.202 72.2085 239.787C69.6165 239.164 66.9796 238.738 64.3246 238.5V238.5ZM256 123.002C291.412 123.002 322.031 146.251 332.349 179.205C328.16 175.741 322.913 173.002 316 173.002C302.029 173.002 295.813 187.587 290.33 200.455C288.828 203.979 286.515 209.407 284.734 212.202C283.295 210.972 281.301 208.632 280.083 207.202C274.975 201.209 267.98 193.002 256.001 193.002C244.023 193.002 237.028 201.209 231.92 207.202C230.701 208.632 228.708 210.971 227.268 212.201C225.487 209.406 223.174 203.979 221.672 200.455C216.189 187.588 209.973 173.002 196.002 173.002C189.089 173.002 183.842 175.74 179.653 179.204C189.988 146.201 220.636 123.002 256 123.002ZM200.373 260.44C189.042 249.48 181.294 235.678 177.891 220.325C177.149 216.993 176.629 213.59 176.323 210.15C180.887 207.496 184.333 203.468 187.141 200.174C190.599 196.118 192.974 193.509 195.301 193.068C197.719 195.263 201.299 203.662 203.273 208.295C208.449 220.441 213.801 233.001 226.002 233.001C236.21 233.001 242.528 225.587 247.142 220.174C250.945 215.711 253.44 213.001 256.001 213.001C258.562 213.001 261.057 215.711 264.861 220.174C269.474 225.587 275.793 233.001 286.001 233.001C298.201 233.001 303.553 220.441 308.729 208.295C310.703 203.662 314.283 195.262 316.701 193.068C319.028 193.51 321.404 196.118 324.861 200.174C327.669 203.469 331.115 207.496 335.679 210.15C335.373 213.591 334.852 216.998 334.108 220.337C330.708 235.678 322.96 249.48 311.629 260.44C291.986 262.133 273.28 263.001 256.001 263.001C238.721 263.001 220.015 262.132 200.373 260.44V260.44ZM452.399 179.247C448.202 175.763 442.941 173.002 435.999 173.002C422.028 173.002 415.813 187.587 410.33 200.455C408.828 203.979 406.515 209.407 404.734 212.202C403.295 210.972 401.301 208.632 400.083 207.202C394.975 201.209 387.98 193.002 376.001 193.002C366.914 193.002 360.699 197.725 355.996 202.621C355.903 178.339 346.907 154.983 330.977 136.919C344.188 127.893 359.836 123.003 376.001 123.003C411.844 123.002 442.257 146.697 452.399 179.247V179.247ZM356 83.0021C356 71.9742 364.972 63.0022 376 63.0022C387.028 63.0022 396 71.9742 396 83.0021C396 94.0301 387.028 103.002 376 103.002C364.972 103.002 356 94.0301 356 83.0021ZM236.001 83.0021C236.001 71.9742 244.973 63.0022 256 63.0022C267.028 63.0022 276 71.9742 276 83.0021C276 94.0301 267.028 103.002 256 103.002C244.973 103.002 236.001 94.0301 236.001 83.0021ZM116.001 83.0021C116.001 71.9742 124.973 63.0022 136.001 63.0022C147.029 63.0022 156.001 71.9742 156.001 83.0021C156.001 94.0301 147.029 103.002 136.001 103.002C124.973 103.002 116.001 94.0301 116.001 83.0021ZM136.001 123.002C152.167 123.002 167.814 127.892 181.026 136.919C165.093 154.987 156.1 178.34 156.006 202.62C151.303 197.724 145.088 193.001 136.001 193.001C124.022 193.001 117.027 201.208 111.919 207.201C110.7 208.631 108.707 210.97 107.267 212.2C105.486 209.405 103.173 203.978 101.671 200.454C96.1884 187.587 89.9724 173.001 76.0015 173.001C69.0595 173.001 63.7986 175.762 59.6016 179.246C69.7435 146.697 100.156 123.002 136.001 123.002V123.002ZM490.582 386.846C471.29 389.675 451.818 399.489 435.763 414.728C410.819 438.414 379.518 451.999 349.89 451.999C335.944 451.999 169.628 451.999 162.111 451.999C132.483 451.999 101.182 438.414 76.2365 414.726C60.1856 399.492 40.7167 389.679 21.4298 386.847C25.3078 374.768 36.6507 365.999 50.0027 365.999H462C475.605 366 486.796 374.994 490.582 386.846V386.846ZM463.644 336.768C451.281 340.062 438.58 343.164 425.875 346.001H86.1245C73.4195 343.164 60.7186 340.063 48.3577 336.769C31.6618 332.317 20.0018 317.045 20.0018 299.631C20.0018 274.248 43.5487 253.469 67.5476 259.237C123.855 272.691 195.433 283.001 256 283.001C315.957 283.001 387.418 272.865 444.466 259.234C468.288 253.509 491.999 274.071 491.999 299.631C491.999 317.045 480.338 332.317 463.644 336.768V336.768Z" fill="#FFFAFA"/>
<path d="M256.001 512C261.524 512 266.001 507.523 266.001 502C266.001 496.477 261.524 492 256.001 492C250.479 492 246.001 496.477 246.001 502C246.001 507.523 250.479 512 256.001 512Z" fill="#FFFAFA"/>
</g>
<defs>
<clipPath id="clip0_72_539">
<rect width="512" height="512" fill="white"/>
</clipPath>
</defs>
</svg>
