<svg width="512" height="512" viewBox="0 0 512 512" fill="none" xmlns="http://www.w3.org/2000/svg">
<g clip-path="url(#clip0_72_601)">
<path d="M256.001 512C261.523 512 266.001 507.523 266.001 502C266.001 496.477 261.523 492 256.001 492C250.478 492 246 496.477 246 502C246 507.523 250.478 512 256.001 512Z" fill="white"/>
<path d="M461.998 346H401.178C417.025 328.011 425.999 304.741 425.999 280C425.999 236.304 397.599 197.651 355.885 184.566C355.953 183.046 356 181.524 356 180.001C356 138.712 331.099 103.385 295.175 88.0002C295.711 85.3732 296 82.6922 296 80.0013C296 61.6374 283.556 46.1345 266.661 41.4555C269.399 24.5286 279.802 19.2716 280.31 19.0256C285.291 16.6466 287.404 10.6797 285.026 5.6967C282.648 0.711732 276.68 -1.40026 271.695 0.97573C269.295 2.12072 249.893 12.2497 246.512 41.1605C245.701 41.3585 244.896 41.5735 244.1 41.8215C219.922 0.513734 168.333 0.00173598 166 0.00173598C160.477 0.00173598 156 4.47871 156 10.0017C156 11.1877 156.185 34.6385 168.594 57.3934C140.349 64.0654 120.334 81.6553 119.345 82.5373C117.217 84.4342 116 87.1492 116 90.0002C116 92.8512 117.217 95.5662 119.345 97.4642C120.467 98.4642 142.678 117.951 173.376 123.602C162.073 140.062 156.001 159.512 156.001 180.001C156.001 181.524 156.048 183.046 156.116 184.566C114.417 197.649 86.0015 236.282 86.0015 280C86.0015 304.729 94.9784 328.004 110.827 346H50.0007C22.4308 346 0.000976562 368.43 0.000976562 395.999C0.000976562 401.522 4.47895 405.999 10.0009 405.999C27.7878 405.999 46.9107 414.467 62.4646 429.231C88.8555 454.289 121.788 469.495 153.961 471.716L141.056 497.527C139.506 500.627 139.672 504.308 141.494 507.256C143.316 510.204 146.535 511.999 150.001 511.999H211.002C216.524 511.999 221.002 507.522 221.002 501.999C221.002 496.476 216.524 491.999 211.002 491.999H166.182L176.182 471.999H335.82L345.82 491.999H301.002C295.479 491.999 291.002 496.477 291.002 501.999C291.002 507.521 295.479 511.999 301.002 511.999H362.001C369.419 511.999 374.269 504.174 370.945 497.527L358.04 471.716C390.213 469.494 423.145 454.289 449.535 429.232C465.09 414.467 484.213 405.999 502 405.999C507.522 405.999 512 401.522 512 395.999C511.998 368.377 489.623 346 461.998 346V346ZM405.999 280C405.999 306.583 393.048 331.045 371.214 346H261.178C277.025 328.011 286 304.741 286 280C286 260.031 279.962 240.452 268.862 224.014C283.871 208.671 304.301 200.001 326 200.001C370.878 200.001 405.999 236.881 405.999 280ZM335.999 180.001C335.999 180.169 335.992 180.336 335.991 180.504C332.678 180.174 329.342 180.001 325.999 180.001C299.553 180.001 274.615 190.298 255.999 208.584C237.384 190.298 212.446 180.001 186 180.001C182.658 180.001 179.321 180.174 176.008 180.504C176.007 180.336 176 180.169 176 180.001C176 159.149 183.868 139.649 198.21 124.699C210.48 123.457 222.199 119.476 233.18 112.83C239.819 117.445 247.787 120 255.999 120C267.874 120 278.898 114.777 286.405 105.978C316.344 118.2 335.999 147.099 335.999 180.001ZM275.999 80.0013C275.999 91.0752 267.034 100.001 255.999 100.001C244.974 100.001 236 91.0122 236 80.0013C236 68.8963 245.031 60.0014 255.999 60.0014C267.028 60.0014 275.999 68.9733 275.999 80.0013ZM227.077 52.3924C221.2 58.5334 217.413 66.3903 216.327 74.8933C207.241 71.3043 199.561 65.8294 193.408 58.5194C183.107 46.2895 178.899 31.2286 177.181 21.1606C191.082 23.5206 214.495 30.6906 227.077 52.3924ZM181.701 75.3593C191.904 85.9372 204.675 93.1752 219.787 96.9442C219.852 97.0822 219.91 97.2242 219.977 97.3612C211.477 101.972 202.499 104.553 193.177 105.045C172.56 106.156 153.931 96.9702 142.956 90.0002C151.854 84.3452 165.768 77.2593 181.701 75.3593V75.3593ZM106 280C106 236.913 141.084 200.001 186 200.001C229.548 200.001 265.999 235.233 265.999 280C265.999 306.583 253.048 331.045 231.215 346H140.781C118.951 331.033 106 306.564 106 280ZM435.763 414.727C410.818 438.414 379.517 451.999 349.889 451.999C347.997 451.999 164.187 451.999 162.111 451.999C132.483 451.999 101.182 438.414 76.2355 414.726C60.1846 399.492 40.7157 389.679 21.4279 386.847C25.3068 374.769 36.6498 366 50.0007 366H461.998C475.606 366 486.796 374.997 490.581 386.846C471.289 389.675 451.818 399.488 435.763 414.727V414.727Z" fill="white"/>
</g>
<defs>
<clipPath id="clip0_72_601">
<rect width="512" height="512" fill="white"/>
</clipPath>
</defs>
</svg>
