<svg width="512" height="512" viewBox="0 0 512 512" fill="none" xmlns="http://www.w3.org/2000/svg">
<path d="M345.01 235.323C353.722 229.137 364.149 226 376 226H396C401.523 226 406 221.523 406 216C406 188.43 383.57 166 356 166H301.001C295.478 166 291.001 170.477 291.001 176C291.001 181.523 295.478 186 301.001 186H356C369.038 186 380.159 194.359 384.287 206H127.713C131.84 194.359 142.962 186 156 186H211.001C216.524 186 221.001 181.523 221.001 176C221.001 170.477 216.524 166 211.001 166H156C128.43 166 106 188.43 106 216C106 221.523 110.477 226 116 226H136C147.843 226 158.26 229.139 166.965 235.33C192.172 253.252 219.303 263.62 246 265.631V370.648L190.453 407.679C186.786 410.123 185.152 414.679 186.429 418.897C187.706 423.114 191.593 425.999 196 425.999H316C320.407 425.999 324.294 423.114 325.571 418.897C326.848 414.679 325.214 410.123 321.547 407.679L266 370.648V265.628C292.666 263.608 319.788 253.239 345.01 235.323V235.323ZM322.799 226C300.964 239.267 278.683 246 256.41 246H255.55C233.253 246 210.969 239.267 189.154 226H322.799ZM229.028 406L256 388.019L282.972 406H229.028Z" fill="#FFFAFA"/>
<path d="M20 304.28V416C20 421.523 24.477 426 30 426C35.523 426 40 421.523 40 416V366H126V416C126 421.523 130.477 426 136 426C141.523 426 146 421.523 146 416V304.28C157.639 300.152 166 289.037 166 276C166 259.458 152.542 246 136 246H60V136C60 108.43 37.57 86 10 86C4.477 86 0 90.477 0 96V276C0 289.036 8.361 300.152 20 304.28ZM40 346V306H126V346H40ZM20 107.713C31.641 111.84 40 122.962 40 136V256C40 261.523 44.477 266 50 266H136C141.514 266 146 270.486 146 276C146 281.514 141.514 286 136 286H30C24.486 286 20 281.514 20 276V107.713Z" fill="#FFFAFA"/>
<path d="M256.001 186C261.524 186 266.001 181.523 266.001 176C266.001 170.477 261.524 166 256.001 166C250.478 166 246.001 170.477 246.001 176C246.001 181.523 250.478 186 256.001 186Z" fill="#FFFAFA"/>
<path d="M502 86C474.43 86 452 108.43 452 136V246H376C359.458 246 346 259.458 346 276C346 289.036 354.361 300.152 366 304.28V416C366 421.523 370.477 426 376 426C381.523 426 386 421.523 386 416V366H472V416C472 421.523 476.477 426 482 426C487.523 426 492 421.523 492 416V304.28C503.639 300.152 512 289.037 512 276V96C512 90.477 507.523 86 502 86ZM386 346V306H472V346H386ZM492 276C492 281.514 487.514 286 482 286H376C370.486 286 366 281.514 366 276C366 270.486 370.486 266 376 266H462C467.523 266 472 261.523 472 256V136C472 122.962 480.359 111.841 492 107.713V276Z" fill="#FFFAFA"/>
</svg>
