<svg width="512" height="512" viewBox="0 0 512 512" fill="none" xmlns="http://www.w3.org/2000/svg">
<path d="M286 170C291.522 170 296 165.523 296 160C296 154.477 291.522 150 286 150C280.477 150 276 154.477 276 160C276 165.523 280.477 170 286 170Z" fill="white"/>
<path d="M226 170C231.522 170 236 165.523 236 160C236 154.477 231.522 150 226 150C220.477 150 216 154.477 216 160C216 165.523 220.477 170 226 170Z" fill="white"/>
<path d="M256 266C283.57 266 306 243.57 306 216C306 210.477 301.523 206 296 206H216C210.477 206 206 210.477 206 216C206 243.57 228.43 266 256 266ZM284.286 226C280.159 237.641 269.038 246 256 246C242.962 246 231.841 237.641 227.713 226H284.286Z" fill="white"/>
<path d="M256 512C261.523 512 266 507.523 266 502C266 496.477 261.523 492 256 492C250.478 492 246 496.477 246 502C246 507.523 250.478 512 256 512Z" fill="white"/>
<path d="M36 511.999H211.001C216.524 511.999 221.001 507.522 221.001 501.999C221.001 496.476 216.524 491.999 211.001 491.999H126V364.648C138.696 357.457 152.092 352.296 166 349.252V435.999C166 441.522 170.477 445.999 176 445.999H335.999C341.522 445.999 345.999 441.522 345.999 435.999V349.251C359.91 352.295 373.306 357.456 385.999 364.649V491.999H301C295.477 491.999 291 496.476 291 501.999C291 507.522 295.477 511.999 301 511.999H475.999C481.522 511.999 485.999 507.522 485.999 501.999C485.999 407.455 409.442 325.999 315.999 325.999H305.999V293.986C342.652 275.275 365.999 237.52 365.999 196V110C365.999 49.3459 316.654 0 256 0C195.345 0 146 49.3459 146 110V196C146 237.52 169.346 275.275 206 293.986V325.999H196C102.785 325.999 26 407.208 26 501.999C26 507.522 30.477 511.999 36 511.999ZM465.675 491.999H405.999V378.151C440.795 405.816 462.788 447.517 465.675 491.999ZM226 301.855C235.701 304.604 245.741 305.999 256 305.999C266.259 305.999 276.299 304.605 285.999 301.855V335.999C285.999 352.541 272.542 365.999 256 365.999C239.458 365.999 226 352.541 226 335.999V301.855ZM256 20C297.743 20 332.937 48.5689 343.065 87.1808C324.547 74.9209 294.173 59.9999 256 59.9999C217.826 59.9999 187.452 74.9209 168.934 87.1808C179.062 48.5689 214.256 20 256 20ZM341.277 110.581L327.027 124.831C314.767 115.713 288.87 99.9998 256 99.9998C223.048 99.9998 197.205 115.692 184.963 124.821L170.724 110.582C184.433 99.9428 215.535 79.9998 256 79.9998C296.471 79.9998 327.576 99.9498 341.277 110.581ZM166 196V134.143L177.208 145.352C181.059 149.202 187.27 149.257 191.187 145.512C191.957 144.8 219.167 120 256 120C292.694 120 319.77 144.553 320.904 145.599C324.967 149.342 331.063 149.079 334.79 145.352L345.999 134.143V196C345.999 231.795 324.801 264.184 291.997 278.515C280.625 283.481 268.515 285.999 256 285.999C243.485 285.999 231.374 283.481 220.003 278.516C187.198 264.184 166 231.795 166 196V196ZM207.005 345.999C211.651 368.793 231.855 385.999 256.001 385.999C280.147 385.999 300.349 368.793 304.996 345.999H315.999C319.321 345.999 322.663 346.129 325.999 346.368V425.999H186V346.368C189.336 346.129 192.678 345.999 196 345.999H207.005ZM106 378.146V491.999H46.325C49.209 447.505 71.2019 405.806 106 378.146Z" fill="white"/>
</svg>
