<svg width="512" height="512" viewBox="0 0 512 512" fill="none" xmlns="http://www.w3.org/2000/svg">
<path d="M379.001 140C384.524 140 389.001 135.523 389.001 130C389.001 124.477 384.524 120 379.001 120C373.478 120 369.001 124.477 369.001 130C369.001 135.523 373.478 140 379.001 140Z" fill="white"/>
<path d="M511.327 232.393L470.327 126.393C468.836 122.54 465.131 120 461 120H424.001C418.478 120 414.001 124.477 414.001 130C414.001 135.523 418.478 140 424.001 140H454.146L487.41 226H24.59L57.854 140H224.18L246.644 199.531C248.113 203.424 251.839 206 256 206C260.161 206 263.887 203.424 265.356 199.531L287.82 140H334.001C339.524 140 344.001 135.523 344.001 130C344.001 124.477 339.524 120 334.001 120H295.368L303.251 99.109C316.301 95.857 326 84.042 326 70C326 56.692 317.29 45.38 305.272 41.466C301.209 17.948 280.661 0 256 0C231.339 0 210.791 17.948 206.729 41.466C194.71 45.38 186 56.692 186 70C186 84.042 195.699 95.857 208.749 99.109L216.632 120H51C46.869 120 43.164 122.54 41.673 126.393L0.673 232.393C0.284 233.401 0 234.765 0 236V282C0 285.864 2.304 289.412 5.701 291.029C5.89 291.119 23.114 299.325 41 308.193V492H10C4.477 492 0 496.477 0 502C0 507.523 4.477 512 10 512H502C507.523 512 512 507.523 512 502C512 496.477 507.523 492 502 492H471V308.248L506.384 290.987C509.781 289.329 512 285.781 512 281.999V235.999C512 234.81 511.727 233.429 511.327 232.393V232.393ZM256 167.679L229.239 96.76C230.588 96.06 231.888 95.253 233.13 94.342C240.216 98.063 247.988 100 256 100C264.012 100 271.784 98.063 278.87 94.342C280.112 95.253 281.413 96.06 282.761 96.76L256 167.679ZM216 60C221.523 60 226 55.523 226 50C226 33.458 239.458 20 256 20C272.542 20 286 33.458 286 50C286 55.523 290.477 60 296 60C301.514 60 306 64.486 306 70C306 75.514 301.514 80 296 80C291.992 80 289.411 77.32 288.229 75.722C284.913 71.241 278.56 70.33 274.119 73.724C268.745 77.83 262.48 80 256 80C249.52 80 243.255 77.83 237.881 73.724C233.471 70.353 227.108 71.211 223.771 75.722C222.589 77.32 220.008 80 216 80C210.486 80 206 75.514 206 70C206 64.486 210.486 60 216 60V60ZM346 432H451V452H346V432ZM346 412V352H451V412H346ZM461 290.874L430 275.752V246H492V275.752L461 290.874ZM61 432H166V452H61V432ZM166 412H61V352H166V412ZM51 290.828C38.829 284.785 26.814 278.977 20 275.702V246H82V275.702C75.186 278.977 63.171 284.784 51 290.828ZM102 246H164V275.752L133 290.874L102 275.752V246ZM184 246H246V275.752L215 290.874L184 275.752V246ZM266 246H328V275.752L297 290.874L266 275.752V246ZM348 246H410V275.752L379 290.874L348 275.752V246ZM226 392H246V432H226V392ZM266 392H286V432H266V392ZM286 452V492H266V452H286ZM227.72 372C231.848 360.361 242.963 352 256 352C269.037 352 280.152 360.361 284.28 372H227.72ZM226 452H246V492H226V452ZM306 492V382C306 354.43 283.57 332 256 332C228.43 332 206 354.43 206 382V492H61V472H176C181.523 472 186 467.523 186 462V342C186 336.477 181.523 332 176 332H61V308.193C73.509 301.991 85.698 296.111 91.959 293.106L128.616 310.988C131.383 312.338 134.618 312.338 137.385 310.988L174 293.126L210.616 310.987C213.383 312.337 216.618 312.337 219.385 310.987L256 293.126L292.616 310.987C295.383 312.337 298.618 312.337 301.385 310.987L338 293.126L374.616 310.987C377.383 312.337 380.618 312.337 383.385 310.987L420 293.126L451 308.248V332H336C330.477 332 326 336.477 326 342V462C326 467.523 330.477 472 336 472H451V492H306Z" fill="white"/>
</svg>
