<svg width="512" height="512" viewBox="0 0 512 512" fill="none" xmlns="http://www.w3.org/2000/svg">
<g clip-path="url(#clip0_72_442)">
<path d="M256 80C231.34 80 210.791 97.948 206.729 121.466C194.71 125.38 186 136.692 186 150C186 164.091 195.768 175.937 208.885 179.14L246.714 273.714C248.233 277.511 251.91 280 255.999 280C260.088 280 263.766 277.511 265.284 273.714L303.113 179.14C316.233 175.937 326 164.091 326 150C326 136.692 317.29 125.38 305.272 121.466C301.209 97.948 280.66 80 256 80ZM256 243.074L229.431 176.651C230.71 175.975 231.948 175.209 233.13 174.342C240.216 178.063 247.988 180 256 180C264.012 180 271.784 178.062 278.87 174.342C280.052 175.209 281.29 175.975 282.569 176.651L256 243.074ZM296 160C291.992 160 289.411 157.32 288.229 155.723C284.92 151.249 278.569 150.325 274.119 153.724C268.745 157.83 262.479 160 256 160C249.52 160 243.255 157.83 237.881 153.724C233.454 150.343 227.095 151.228 223.771 155.723C222.589 157.32 220.008 160 216 160C210.486 160 206 155.514 206 150C206 144.486 210.486 140 216 140C221.523 140 226 135.523 226 130C226 113.458 239.458 100 256 100C272.542 100 286 113.458 286 130C286 135.523 290.478 140 296 140C301.514 140 306 144.486 306 150C306 155.514 301.514 160 296 160Z" fill="white"/>
<path d="M126 462C126 494.825 191.398 512 256 512C320.602 512 386 494.825 386 462C386 434.498 341.204 419.672 297.361 414.39C306.367 399.28 315.056 384.199 323.276 369.397C325.958 364.568 324.217 358.481 319.388 355.799C314.562 353.119 308.473 354.858 305.791 359.687C289.841 388.407 272.241 417.91 256 443.522C214.954 378.799 126 226.562 126 150C126 78.318 184.317 20 256 20C327.683 20 386 78.318 386 150C386 179.715 372.698 223.544 346.466 280.271C344.148 285.284 346.332 291.227 351.345 293.544C356.359 295.864 362.3 293.678 364.618 288.665C392.077 229.289 406 182.636 406 150C406 67.29 338.71 0 256 0C173.29 0 106 67.29 106 150C106 220.228 170.662 340.636 214.637 414.39C170.794 419.673 126 434.499 126 462V462ZM256 472C259.358 472 262.493 470.314 264.345 467.511C264.438 467.37 273.123 454.2 285.939 433.291C341.75 438.165 366 454.449 366 462C366 478.373 304.952 492 256 492C206.279 492 146 478.151 146 462C146 454.449 170.25 438.164 226.062 433.291C238.878 454.2 247.563 467.37 247.656 467.511C249.507 470.314 252.642 472 256 472V472Z" fill="white"/>
<path d="M336.001 335C341.524 335 346.001 330.523 346.001 325C346.001 319.477 341.524 315 336.001 315C330.478 315 326.001 319.477 326.001 325C326.001 330.523 330.478 335 336.001 335Z" fill="white"/>
</g>
<defs>
<clipPath id="clip0_72_442">
<rect width="512" height="512" fill="white"/>
</clipPath>
</defs>
</svg>
